<svg width="80" height="234" viewBox="0 0 80 234" fill="none" xmlns="http://www.w3.org/2000/svg">
<rect width="80" height="234" rx="10" fill="#4AB6E8"/>
<path d="M0 95H80V224C80 229.523 75.5229 234 70 234H10C4.47715 234 0 229.523 0 224V95Z" fill="#AA6FAC"/>
<path d="M0 190H80V224C80 229.523 75.5229 234 70 234H10C4.47715 234 0 229.523 0 224V190Z" fill="#E85498"/>
<path d="M36.9365 53H34.9609V45.3848L32.6025 46.1162V44.5098L36.7246 43.0332H36.9365V53ZM42.1865 47.1484H43.2393C43.7406 47.1484 44.112 47.0231 44.3535 46.7725C44.5951 46.5218 44.7158 46.1891 44.7158 45.7744C44.7158 45.3734 44.5951 45.0612 44.3535 44.8379C44.1165 44.6146 43.7884 44.5029 43.3691 44.5029C42.9909 44.5029 42.6742 44.6077 42.4189 44.8174C42.1637 45.0225 42.0361 45.2913 42.0361 45.624H40.0605C40.0605 45.1045 40.1995 44.6396 40.4775 44.2295C40.7601 43.8148 41.152 43.4912 41.6533 43.2588C42.1592 43.0264 42.7152 42.9102 43.3213 42.9102C44.374 42.9102 45.1989 43.1631 45.7959 43.6689C46.3929 44.1702 46.6914 44.863 46.6914 45.7471C46.6914 46.2028 46.5524 46.6221 46.2744 47.0049C45.9964 47.3877 45.6318 47.6816 45.1807 47.8867C45.7412 48.0872 46.1582 48.388 46.4316 48.7891C46.7096 49.1901 46.8486 49.6641 46.8486 50.2109C46.8486 51.0951 46.5251 51.8037 45.8779 52.3369C45.2354 52.8701 44.3831 53.1367 43.3213 53.1367C42.3278 53.1367 41.5143 52.8747 40.8809 52.3506C40.252 51.8265 39.9375 51.1338 39.9375 50.2725H41.9131C41.9131 50.6462 42.0521 50.9515 42.3301 51.1885C42.6126 51.4255 42.959 51.5439 43.3691 51.5439C43.8385 51.5439 44.2054 51.4209 44.4697 51.1748C44.7386 50.9242 44.873 50.5938 44.873 50.1836C44.873 49.1901 44.3262 48.6934 43.2324 48.6934H42.1865V47.1484Z" fill="white"/>
<path d="M36.9365 148H34.9609V140.385L32.6025 141.116V139.51L36.7246 138.033H36.9365V148ZM45.5361 137.944V139.571H45.3447C44.4515 139.585 43.7314 139.817 43.1846 140.269C42.6423 140.72 42.3164 141.346 42.207 142.148C42.7357 141.611 43.4033 141.342 44.21 141.342C45.0758 141.342 45.764 141.652 46.2744 142.271C46.7848 142.891 47.04 143.707 47.04 144.719C47.04 145.366 46.8988 145.951 46.6162 146.476C46.3382 147 45.9417 147.408 45.4268 147.699C44.9163 147.991 44.3376 148.137 43.6904 148.137C42.6423 148.137 41.7946 147.772 41.1475 147.043C40.5049 146.314 40.1836 145.341 40.1836 144.124V143.413C40.1836 142.333 40.3864 141.381 40.792 140.556C41.2021 139.726 41.7878 139.086 42.5488 138.635C43.3145 138.179 44.2008 137.949 45.208 137.944H45.5361ZM43.6084 142.928C43.2894 142.928 43 143.012 42.7402 143.181C42.4805 143.345 42.2891 143.563 42.166 143.837V144.438C42.166 145.099 42.2959 145.617 42.5557 145.99C42.8154 146.359 43.18 146.544 43.6494 146.544C44.0732 146.544 44.415 146.378 44.6748 146.045C44.9391 145.708 45.0713 145.272 45.0713 144.739C45.0713 144.197 44.9391 143.759 44.6748 143.427C44.4105 143.094 44.055 142.928 43.6084 142.928Z" fill="white"/>
<path d="M42.5166 206.944V208.571H42.3252C41.432 208.585 40.7119 208.817 40.165 209.269C39.6227 209.72 39.2969 210.346 39.1875 211.148C39.7161 210.611 40.3838 210.342 41.1904 210.342C42.0563 210.342 42.7445 210.652 43.2549 211.271C43.7653 211.891 44.0205 212.707 44.0205 213.719C44.0205 214.366 43.8792 214.951 43.5967 215.476C43.3187 216 42.9222 216.408 42.4072 216.699C41.8968 216.991 41.318 217.137 40.6709 217.137C39.6227 217.137 38.7751 216.772 38.1279 216.043C37.4854 215.314 37.1641 214.341 37.1641 213.124V212.413C37.1641 211.333 37.3669 210.381 37.7725 209.556C38.1826 208.726 38.7682 208.086 39.5293 207.635C40.2949 207.179 41.1813 206.949 42.1885 206.944H42.5166ZM40.5889 211.928C40.2699 211.928 39.9805 212.012 39.7207 212.181C39.4609 212.345 39.2695 212.563 39.1465 212.837V213.438C39.1465 214.099 39.2764 214.617 39.5361 214.99C39.7959 215.359 40.1605 215.544 40.6299 215.544C41.0537 215.544 41.3955 215.378 41.6553 215.045C41.9196 214.708 42.0518 214.272 42.0518 213.739C42.0518 213.197 41.9196 212.759 41.6553 212.427C41.391 212.094 41.0355 211.928 40.5889 211.928Z" fill="white"/>
</svg>
